# xmcd
#
# Track frame offsets:
#	150
#	16322
#	45494
#	59046
#	72933
#	97577
#	111681
#	131177
#	144894
#
# Disc length: 2090
#
# Revision: 3
# Processed by: cddbd v1.5.1PL0 Copyright (c) Steve Scherf et al.
# Submitted via: audiograbber 1.82.02
# Normalized: r1:TDELIM( - ),TSWAP
#
DISCID=7e082809
DTITLE=Over The Hill - Sarah's Compilation
DYEAR=2002
DGENRE=Blues
TTITLE0=John Lee Hooker - Boom Boom
TTITLE1=John Davenport and Eddie Cooley - You Give Me Fever
TTITLE2=Muddy Waters - Rollin' and Tumblin'
TTITLE3=Howlin' Wolf - 300 Pounds of Joy
TTITLE4=Willie Dixon - Tail Dragger
TTITLE5=Bill Sanders and Fred Ingrahm - Crosscut Saw
TTITLE6=R.L. Burnside - Over The Hill
TTITLE7=Slim Harpo - Shake Your Hips
TTITLE8=Little Walter - It Ain't Right
EXTD=
EXTT0=
EXTT1=
EXTT2=
EXTT3=
EXTT4=
EXTT5=
EXTT6=
EXTT7=
EXTT8=
PLAYORDER=
